<?xml version="1.0" encoding="UTF-8" standalone="no"?>
<svg width="33px" height="32px" viewBox="0 0 33 32" version="1.1" xmlns="http://www.w3.org/2000/svg" xmlns:xlink="http://www.w3.org/1999/xlink" xmlns:sketch="http://www.bohemiancoding.com/sketch/ns">
    <!-- Generator: Sketch 3.3 (11970) - http://www.bohemiancoding.com/sketch -->
    <title>Fill 19</title>
    <desc>Created with Sketch.</desc>
    <defs></defs>
    <g id="Page-1" stroke="none" stroke-width="1" fill="none" fill-rule="evenodd" sketch:type="MSPage">
        <g id="Leaderboard-9" sketch:type="MSArtboardGroup" transform="translate(-264.000000, -574.000000)" fill="#D32718">
            <g id="Fill-19" sketch:type="MSLayerGroup" transform="translate(264.000000, 574.000000)">
                <path d="M23.4483914,18.659 C23.2053914,18.659 22.9713914,18.696 22.7443914,18.75 L18.9123914,12.894 C19.4313914,12.35 19.7553914,11.618 19.7553914,10.807 C19.7553914,9.135 18.4003914,7.781 16.7293914,7.781 C15.0573914,7.781 13.7023914,9.135 13.7023914,10.807 C13.7023914,11.26 13.8093914,11.685 13.9873914,12.071 L10.8233914,14.778 C10.3873914,14.535 9.89339143,14.384 9.35839143,14.384 C7.68739143,14.384 6.33239143,15.739 6.33239143,17.411 C6.33239143,19.082 7.68739143,20.437 9.35839143,20.437 C10.3843914,20.437 11.2873914,19.924 11.8343914,19.144 L20.4233914,21.701 C20.4323914,23.365 21.7823914,24.712 23.4483914,24.712 C25.1193914,24.712 26.4743914,23.357 26.4743914,21.686 C26.4743914,20.014 25.1193914,18.659 23.4483914,18.659 L23.4483914,18.659 Z M9.35839143,19.255 C8.34039143,19.255 7.51439143,18.429 7.51439143,17.411 C7.51439143,16.392 8.34039143,15.566 9.35839143,15.566 C10.3773914,15.566 11.2033914,16.392 11.2033914,17.411 C11.2033914,18.429 10.3773914,19.255 9.35839143,19.255 L9.35839143,19.255 Z M16.7293914,8.962 C17.7473914,8.962 18.5733914,9.788 18.5733914,10.807 C18.5733914,11.826 17.7473914,12.651 16.7293914,12.651 C15.7103914,12.651 14.8843914,11.826 14.8843914,10.807 C14.8843914,9.788 15.7103914,8.962 16.7293914,8.962 L16.7293914,8.962 Z M20.5973914,20.709 L12.2593914,18.227 C12.3333914,17.966 12.3853914,17.695 12.3853914,17.411 C12.3853914,16.642 12.0893914,15.948 11.6173914,15.414 L14.5523914,12.903 C15.1033914,13.474 15.8723914,13.833 16.7293914,13.833 C17.2273914,13.833 17.6913914,13.701 18.1063914,13.487 L21.8093914,19.148 C21.2453914,19.513 20.8193914,20.062 20.5973914,20.709 L20.5973914,20.709 Z M23.4483914,23.53 C22.4303914,23.53 21.6043914,22.704 21.6043914,21.686 C21.6043914,20.667 22.4303914,19.841 23.4483914,19.841 C24.4673914,19.841 25.2933914,20.667 25.2933914,21.686 C25.2933914,22.704 24.4673914,23.53 23.4483914,23.53 L23.4483914,23.53 Z" id="Fill-20" sketch:type="MSShapeGroup"></path>
                <path d="M16.6913914,31.75 C7.87939143,31.75 0.710391432,24.685 0.710391432,16 C0.710391432,7.316 7.87939143,0.25 16.6913914,0.25 C25.5033914,0.25 32.6723914,7.316 32.6723914,16 C32.6723914,24.685 25.5033914,31.75 16.6913914,31.75 L16.6913914,31.75 Z M16.6913914,1.75 C8.70639143,1.75 2.21039143,8.143 2.21039143,16 C2.21039143,23.858 8.70639143,30.25 16.6913914,30.25 C24.6763914,30.25 31.1723914,23.858 31.1723914,16 C31.1723914,8.143 24.6763914,1.75 16.6913914,1.75 L16.6913914,1.75 Z" sketch:type="MSShapeGroup"></path>
            </g>
        </g>
    </g>
</svg>