<?xml version="1.0" encoding="UTF-8" standalone="no"?>
<svg width="33px" height="33px" viewBox="0 0 33 33" version="1.1" xmlns="http://www.w3.org/2000/svg" xmlns:xlink="http://www.w3.org/1999/xlink" xmlns:sketch="http://www.bohemiancoding.com/sketch/ns">
    <!-- Generator: Sketch 3.3 (11970) - http://www.bohemiancoding.com/sketch -->
    <title>icon_step5</title>
    <desc>Created with Sketch.</desc>
    <defs></defs>
    <g id="Page-1" stroke="none" stroke-width="1" fill="none" fill-rule="evenodd" sketch:type="MSPage">
        <g id="Leaderboard-9" sketch:type="MSArtboardGroup" transform="translate(-266.000000, -330.000000)" fill="#D32718">
            <path d="M292.438891,334.700823 C293.109891,333.764823 293.813891,332.889823 294.554891,332.113823 C295.030891,331.613823 295.012891,330.822823 294.513891,330.345823 C294.013891,329.869823 293.222891,329.886823 292.745891,330.386823 C291.906891,331.266823 291.116891,332.256823 290.366891,333.307823 C288.021891,331.973823 285.310891,331.198823 282.414891,331.198823 C273.602891,331.198823 266.433891,338.264823 266.433891,346.948823 C266.433891,355.633823 273.602891,362.698823 282.414891,362.698823 C291.226891,362.698823 298.395891,355.633823 298.395891,346.948823 C298.395891,342.004823 296.066891,337.589823 292.438891,334.700823 L292.438891,334.700823 Z M282.414891,361.198823 C274.429891,361.198823 267.933891,354.806823 267.933891,346.948823 C267.933891,339.091823 274.429891,332.698823 282.414891,332.698823 C284.997891,332.698823 287.418891,333.375823 289.520891,334.546823 C285.865891,340.156823 283.392891,347.177823 282.239891,350.896823 L277.068891,343.398823 C276.678891,342.830823 275.898891,342.689823 275.330891,343.079823 C274.762891,343.471823 274.619891,344.249823 275.011891,344.818823 L283.229891,356.734823 L283.916891,354.089823 C283.948891,353.963823 286.719891,343.445823 291.592891,335.936823 C294.827891,338.552823 296.895891,342.516823 296.895891,346.948823 C296.895891,354.806823 290.399891,361.198823 282.414891,361.198823 L282.414891,361.198823 Z" id="icon_step5" sketch:type="MSShapeGroup"></path>
        </g>
    </g>
</svg>