<?xml version="1.0" encoding="UTF-8" standalone="no"?>
<svg width="33px" height="32px" viewBox="0 0 33 32" version="1.1" xmlns="http://www.w3.org/2000/svg" xmlns:xlink="http://www.w3.org/1999/xlink" xmlns:sketch="http://www.bohemiancoding.com/sketch/ns">
    <!-- Generator: Sketch 3.3 (11970) - http://www.bohemiancoding.com/sketch -->
    <title>step4</title>
    <desc>Created with Sketch.</desc>
    <defs></defs>
    <g id="Page-1" stroke="none" stroke-width="1" fill="none" fill-rule="evenodd" sketch:type="MSPage">
        <g id="Leaderboard-9" sketch:type="MSArtboardGroup" transform="translate(-261.000000, -418.000000)" fill="#D32718">
            <g id="step4" sketch:type="MSLayerGroup" transform="translate(261.000000, 418.000000)">
                <path d="M16.9138914,31.75 C8.10289143,31.75 0.933891432,24.685 0.933891432,16 C0.933891432,7.316 8.10289143,0.25 16.9138914,0.25 C25.7258914,0.25 32.8948914,7.316 32.8948914,16 C32.8948914,24.685 25.7258914,31.75 16.9138914,31.75 L16.9138914,31.75 Z M16.9138914,1.75 C8.92989143,1.75 2.43389143,8.143 2.43389143,16 C2.43389143,23.858 8.92989143,30.25 16.9138914,30.25 C24.8988914,30.25 31.3948914,23.858 31.3948914,16 C31.3948914,8.143 24.8988914,1.75 16.9138914,1.75 L16.9138914,1.75 Z" id="Fill-1" sketch:type="MSShapeGroup"></path>
                <path d="M19.2898914,18.048 L18.5998914,16.963 L18.5998914,13.18 L19.0968914,12.25 L14.2098914,12.296 L14.7358914,13.172 L14.7358914,17.213 L9.93389143,24.758 L23.5598914,24.758 L22.0108914,22.324 L18.4858914,22.324 L18.4858914,21.469 L21.4668914,21.469 L20.9228914,20.613 L18.4858914,20.613 L18.4858914,19.758 L20.3788914,19.758 L19.8338914,18.903 L18.4858914,18.903 L18.4858914,18.048 L19.2898914,18.048" id="Fill-2" sketch:type="MSShapeGroup"></path>
                <path d="M16.0698914,10.521 C16.6968914,10.521 17.2048914,10.013 17.2048914,9.386 C17.2048914,8.758 16.6968914,8.25 16.0698914,8.25 C15.4418914,8.25 14.9338914,8.758 14.9338914,9.386 C14.9338914,10.013 15.4418914,10.521 16.0698914,10.521" id="Fill-3" sketch:type="MSShapeGroup"></path>
                <path d="M17.6908914,7.764 C18.1088914,7.764 18.4478914,7.425 18.4478914,7.007 C18.4478914,6.589 18.1088914,6.25 17.6908914,6.25 C17.2728914,6.25 16.9338914,6.589 16.9338914,7.007 C16.9338914,7.425 17.2728914,7.764 17.6908914,7.764" id="Fill-4" sketch:type="MSShapeGroup"></path>
                <path d="M19.6918914,8.764 C20.1098914,8.764 20.4488914,8.425 20.4488914,8.007 C20.4488914,7.589 20.1098914,7.25 19.6918914,7.25 C19.2738914,7.25 18.9338914,7.589 18.9338914,8.007 C18.9338914,8.425 19.2738914,8.764 19.6918914,8.764" id="Fill-5" sketch:type="MSShapeGroup"></path>
            </g>
        </g>
    </g>
</svg>