<?xml version="1.0" encoding="UTF-8" standalone="no"?>
<svg width="35px" height="32px" viewBox="0 0 35 32" version="1.1" xmlns="http://www.w3.org/2000/svg" xmlns:xlink="http://www.w3.org/1999/xlink" xmlns:sketch="http://www.bohemiancoding.com/sketch/ns">
    <!-- Generator: Sketch 3.3 (11970) - http://www.bohemiancoding.com/sketch -->
    <title>Fill 6 + Fill 7</title>
    <desc>Created with Sketch.</desc>
    <defs></defs>
    <g id="Page-1" stroke="none" stroke-width="1" fill="none" fill-rule="evenodd" sketch:type="MSPage">
        <g id="Leaderboard-9" sketch:type="MSArtboardGroup" transform="translate(-262.000000, -819.000000)" fill="#D32718">
            <g id="Fill-6-+-Fill-7" sketch:type="MSLayerGroup" transform="translate(261.933891, 819.000000)">
                <path d="M18.691,0.34 C13.646,0.34 9.147,2.663 6.216,6.273 L7.882,6.641 C10.537,3.704 14.392,1.84 18.691,1.84 C26.676,1.84 33.172,8.233 33.172,16.09 C33.172,23.948 26.676,30.34 18.691,30.34 C14.716,30.34 11.112,28.755 8.493,26.194 L6.845,26.624 C9.771,29.818 13.991,31.84 18.691,31.84 C27.503,31.84 34.672,24.775 34.672,16.09 C34.672,7.406 27.503,0.34 18.691,0.34" id="Fill-6" sketch:type="MSShapeGroup"></path>
                <path d="M15.958,18.632 L15.958,23.324 L25.49,17.067 L15.958,9.246 L15.958,13.939 C15.958,13.939 9.679,13.848 5.488,16.523 C1.297,19.201 0.042,24.888 0.042,24.888 C0.042,24.888 4.133,20.634 7.841,19.257 C11.899,17.752 15.958,18.632 15.958,18.632" id="Fill-7" sketch:type="MSShapeGroup"></path>
            </g>
        </g>
    </g>
</svg>