<?xml version="1.0" encoding="UTF-8" standalone="no"?>
<svg width="33px" height="32px" viewBox="0 0 33 32" version="1.1" xmlns="http://www.w3.org/2000/svg" xmlns:xlink="http://www.w3.org/1999/xlink" xmlns:sketch="http://www.bohemiancoding.com/sketch/ns">
    <!-- Generator: Sketch 3.3 (11970) - http://www.bohemiancoding.com/sketch -->
    <title>Group</title>
    <desc>Created with Sketch.</desc>
    <defs></defs>
    <g id="Page-1" stroke="none" stroke-width="1" fill="none" fill-rule="evenodd" sketch:type="MSPage">
        <g id="Leaderboard-9" sketch:type="MSArtboardGroup" transform="translate(-263.000000, -739.000000)" fill="#FFFFFF">
            <g id="Group" sketch:type="MSLayerGroup" transform="translate(263.000000, 739.000000)">
                <path d="M16.6643914,12.6984127 C17.7133914,12.6984127 18.5643914,11.8460952 18.5643914,10.7936508 C18.5643914,9.74222222 17.7133914,8.88888889 16.6643914,8.88888889 C15.6153914,8.88888889 14.7643914,9.74222222 14.7643914,10.7936508 C14.7643914,11.8460952 15.6153914,12.6984127 16.6643914,12.6984127" id="Fill-10" sketch:type="MSShapeGroup"></path>
                <path d="M23.2643914,12.6984127 C24.3133914,12.6984127 25.1643914,11.8460952 25.1643914,10.7936508 C25.1643914,9.74222222 24.3133914,8.88888889 23.2643914,8.88888889 C22.2153914,8.88888889 21.3643914,9.74222222 21.3643914,10.7936508 C21.3643914,11.8460952 22.2153914,12.6984127 23.2643914,12.6984127" id="Fill-11" sketch:type="MSShapeGroup"></path>
                <path d="M10.0643914,18.4126984 C11.1133914,18.4126984 11.9643914,17.560381 11.9643914,16.5079365 C11.9643914,15.4565079 11.1133914,14.6031746 10.0643914,14.6031746 C9.01539143,14.6031746 8.16439143,15.4565079 8.16439143,16.5079365 C8.16439143,17.560381 9.01539143,18.4126984 10.0643914,18.4126984" id="Fill-12" sketch:type="MSShapeGroup"></path>
                <path d="M16.6643914,18.4126984 C17.7133914,18.4126984 18.5643914,17.560381 18.5643914,16.5079365 C18.5643914,15.4565079 17.7133914,14.6031746 16.6643914,14.6031746 C15.6153914,14.6031746 14.7643914,15.4565079 14.7643914,16.5079365 C14.7643914,17.560381 15.6153914,18.4126984 16.6643914,18.4126984" id="Fill-13" sketch:type="MSShapeGroup"></path>
                <path d="M23.2643914,18.4126984 C24.3133914,18.4126984 25.1643914,17.560381 25.1643914,16.5079365 C25.1643914,15.4565079 24.3133914,14.6031746 23.2643914,14.6031746 C22.2153914,14.6031746 21.3643914,15.4565079 21.3643914,16.5079365 C21.3643914,17.560381 22.2153914,18.4126984 23.2643914,18.4126984" id="Fill-14" sketch:type="MSShapeGroup"></path>
                <path d="M10.0643914,24.1269841 C11.1133914,24.1269841 11.9643914,23.2746667 11.9643914,22.2222222 C11.9643914,21.1707937 11.1133914,20.3174603 10.0643914,20.3174603 C9.01539143,20.3174603 8.16439143,21.1707937 8.16439143,22.2222222 C8.16439143,23.2746667 9.01539143,24.1269841 10.0643914,24.1269841" id="Fill-15" sketch:type="MSShapeGroup"></path>
                <path d="M16.6643914,24.1269841 C17.7133914,24.1269841 18.5643914,23.2746667 18.5643914,22.2222222 C18.5643914,21.1707937 17.7133914,20.3174603 16.6643914,20.3174603 C15.6153914,20.3174603 14.7643914,21.1707937 14.7643914,22.2222222 C14.7643914,23.2746667 15.6153914,24.1269841 16.6643914,24.1269841" id="Fill-16" sketch:type="MSShapeGroup"></path>
                <path d="M23.2643914,24.1269841 C24.3133914,24.1269841 25.1643914,23.2746667 25.1643914,22.2222222 C25.1643914,21.1707937 24.3133914,20.3174603 23.2643914,20.3174603 C22.2153914,20.3174603 21.3643914,21.1707937 21.3643914,22.2222222 C21.3643914,23.2746667 22.2153914,24.1269841 23.2643914,24.1269841" id="Fill-17" sketch:type="MSShapeGroup"></path>
                <path d="M16.9333914,0 C8.12139143,0 0.953391432,7.17815873 0.953391432,16 C0.953391432,24.8228571 8.12139143,32 16.9333914,32 C25.7453914,32 32.9143914,24.8228571 32.9143914,16 C32.9143914,7.17815873 25.7453914,0 16.9333914,0 L16.9333914,0 Z M16.9333914,30.4761905 C8.94939143,30.4761905 2.45339143,23.9827302 2.45339143,16 C2.45339143,12.048254 4.04839143,8.46526984 6.62539143,5.8504127 L27.0673914,5.67669841 C29.7463914,8.30577778 31.4143914,11.959873 31.4143914,16 C31.4143914,23.9827302 24.9183914,30.4761905 16.9333914,30.4761905 L16.9333914,30.4761905 Z" id="Fill-18" sketch:type="MSShapeGroup"></path>
            </g>
        </g>
    </g>
</svg>