<?xml version="1.0" encoding="UTF-8" standalone="no"?>
<svg width="33px" height="32px" viewBox="0 0 33 32" version="1.1" xmlns="http://www.w3.org/2000/svg" xmlns:xlink="http://www.w3.org/1999/xlink" xmlns:sketch="http://www.bohemiancoding.com/sketch/ns">
    <!-- Generator: Sketch 3.3 (11970) - http://www.bohemiancoding.com/sketch -->
    <title>Fill 19 + Fill 20</title>
    <desc>Created with Sketch.</desc>
    <defs></defs>
    <g id="Page-1" stroke="none" stroke-width="1" fill="none" fill-rule="evenodd" sketch:type="MSPage">
        <g id="Organisation---not-publishing" sketch:type="MSArtboardGroup" transform="translate(-274.000000, -976.000000)" fill="#FFFFFF">
            <g id="Fill-19-+-Fill-20" sketch:type="MSLayerGroup" transform="translate(274.000000, 976.000000)">
                <path d="M16.896,31.59 C8.084,31.59 0.915,24.525 0.915,15.84 C0.915,7.156 8.084,0.09 16.896,0.09 C25.708,0.09 32.877,7.156 32.877,15.84 C32.877,24.525 25.708,31.59 16.896,31.59 L16.896,31.59 Z M16.896,1.59 C8.911,1.59 2.415,7.983 2.415,15.84 C2.415,23.698 8.911,30.09 16.896,30.09 C24.881,30.09 31.377,23.698 31.377,15.84 C31.377,7.983 24.881,1.59 16.896,1.59 L16.896,1.59 Z" id="Fill-19" sketch:type="MSShapeGroup"></path>
                <path d="M23.653,18.499 C23.41,18.499 23.176,18.536 22.949,18.59 L19.117,12.734 C19.636,12.19 19.96,11.458 19.96,10.647 C19.96,8.975 18.605,7.621 16.934,7.621 C15.262,7.621 13.907,8.975 13.907,10.647 C13.907,11.1 14.014,11.525 14.192,11.911 L11.028,14.618 C10.592,14.375 10.098,14.224 9.563,14.224 C7.892,14.224 6.537,15.579 6.537,17.251 C6.537,18.922 7.892,20.277 9.563,20.277 C10.589,20.277 11.492,19.764 12.039,18.984 L20.628,21.541 C20.637,23.205 21.987,24.552 23.653,24.552 C25.324,24.552 26.679,23.197 26.679,21.526 C26.679,19.854 25.324,18.499 23.653,18.499 L23.653,18.499 Z M9.563,19.095 C8.545,19.095 7.719,18.269 7.719,17.251 C7.719,16.232 8.545,15.406 9.563,15.406 C10.582,15.406 11.408,16.232 11.408,17.251 C11.408,18.269 10.582,19.095 9.563,19.095 L9.563,19.095 Z M16.934,8.802 C17.952,8.802 18.778,9.628 18.778,10.647 C18.778,11.666 17.952,12.491 16.934,12.491 C15.915,12.491 15.089,11.666 15.089,10.647 C15.089,9.628 15.915,8.802 16.934,8.802 L16.934,8.802 Z M20.802,20.549 L12.464,18.067 C12.538,17.806 12.59,17.535 12.59,17.251 C12.59,16.482 12.294,15.788 11.822,15.254 L14.757,12.743 C15.308,13.314 16.077,13.673 16.934,13.673 C17.432,13.673 17.896,13.541 18.311,13.327 L22.014,18.988 C21.45,19.353 21.024,19.902 20.802,20.549 L20.802,20.549 Z M23.653,23.37 C22.635,23.37 21.809,22.544 21.809,21.526 C21.809,20.507 22.635,19.681 23.653,19.681 C24.672,19.681 25.498,20.507 25.498,21.526 C25.498,22.544 24.672,23.37 23.653,23.37 L23.653,23.37 Z" id="Fill-20" sketch:type="MSShapeGroup"></path>
            </g>
        </g>
    </g>
</svg>