<?xml version="1.0" encoding="UTF-8" standalone="no"?>
<svg width="32px" height="33px" viewBox="0 0 32 33" version="1.1" xmlns="http://www.w3.org/2000/svg" xmlns:xlink="http://www.w3.org/1999/xlink" xmlns:sketch="http://www.bohemiancoding.com/sketch/ns">
    <!-- Generator: Sketch 3.3 (11970) - http://www.bohemiancoding.com/sketch -->
    <title>Imported Layers</title>
    <desc>Created with Sketch.</desc>
    <defs></defs>
    <g id="Page-1" stroke="none" stroke-width="1" fill="none" fill-rule="evenodd" sketch:type="MSPage">
        <g id="Organisation---not-publishing" sketch:type="MSArtboardGroup" transform="translate(-274.000000, -1352.000000)" fill="#FFFFFF">
            <path d="M300.005,1356.70082 C300.676,1355.76482 301.38,1354.88982 302.121,1354.11382 C302.597,1353.61382 302.579,1352.82282 302.08,1352.34582 C301.58,1351.86982 300.789,1351.88682 300.312,1352.38682 C299.473,1353.26682 298.683,1354.25682 297.933,1355.30782 C295.588,1353.97382 292.877,1353.19882 289.981,1353.19882 C281.169,1353.19882 274,1360.26482 274,1368.94882 C274,1377.63382 281.169,1384.69882 289.981,1384.69882 C298.793,1384.69882 305.962,1377.63382 305.962,1368.94882 C305.962,1364.00482 303.633,1359.58982 300.005,1356.70082 L300.005,1356.70082 Z M289.981,1383.19882 C281.996,1383.19882 275.5,1376.80682 275.5,1368.94882 C275.5,1361.09182 281.996,1354.69882 289.981,1354.69882 C292.564,1354.69882 294.985,1355.37582 297.087,1356.54682 C293.432,1362.15682 290.959,1369.17782 289.806,1372.89682 L284.635,1365.39882 C284.245,1364.83082 283.465,1364.68982 282.897,1365.07982 C282.329,1365.47182 282.186,1366.24982 282.578,1366.81882 L290.796,1378.73482 L291.483,1376.08982 C291.515,1375.96382 294.286,1365.44582 299.159,1357.93682 C302.394,1360.55282 304.462,1364.51682 304.462,1368.94882 C304.462,1376.80682 297.966,1383.19882 289.981,1383.19882 L289.981,1383.19882 Z" id="Imported-Layers" sketch:type="MSShapeGroup"></path>
        </g>
    </g>
</svg>