<?xml version="1.0" encoding="UTF-8" standalone="no"?>
<svg width="32px" height="32px" viewBox="0 0 32 32" version="1.1" xmlns="http://www.w3.org/2000/svg" xmlns:xlink="http://www.w3.org/1999/xlink" xmlns:sketch="http://www.bohemiancoding.com/sketch/ns">
    <!-- Generator: Sketch 3.3 (11970) - http://www.bohemiancoding.com/sketch -->
    <title>Group</title>
    <desc>Created with Sketch.</desc>
    <defs></defs>
    <g id="Page-1" stroke="none" stroke-width="1" fill="none" fill-rule="evenodd" sketch:type="MSPage">
        <g id="Organisation---not-publishing" sketch:type="MSArtboardGroup" transform="translate(-282.000000, -1162.000000)" fill="#FFFFFF">
            <g id="Group" sketch:type="MSLayerGroup" transform="translate(282.000000, 1162.000000)">
                <path d="M15.98,31.5 C7.169,31.5 0,24.435 0,15.75 C0,7.066 7.169,0 15.98,0 C24.792,0 31.961,7.066 31.961,15.75 C31.961,24.435 24.792,31.5 15.98,31.5 L15.98,31.5 Z M15.98,1.5 C7.996,1.5 1.5,7.893 1.5,15.75 C1.5,23.608 7.996,30 15.98,30 C23.965,30 30.461,23.608 30.461,15.75 C30.461,7.893 23.965,1.5 15.98,1.5 L15.98,1.5 Z" id="Fill-1" sketch:type="MSShapeGroup"></path>
                <path d="M18.356,17.798 L17.666,16.713 L17.666,12.93 L18.163,12 L13.276,12.046 L13.802,12.922 L13.802,16.963 L9,24.508 L22.626,24.508 L21.077,22.074 L17.552,22.074 L17.552,21.219 L20.533,21.219 L19.989,20.363 L17.552,20.363 L17.552,19.508 L19.445,19.508 L18.9,18.653 L17.552,18.653 L17.552,17.798 L18.356,17.798" id="Fill-2" sketch:type="MSShapeGroup"></path>
                <path d="M15.136,10.271 C15.763,10.271 16.271,9.763 16.271,9.136 C16.271,8.508 15.763,8 15.136,8 C14.508,8 14,8.508 14,9.136 C14,9.763 14.508,10.271 15.136,10.271" id="Fill-3" sketch:type="MSShapeGroup"></path>
                <path d="M16.757,7.514 C17.175,7.514 17.514,7.175 17.514,6.757 C17.514,6.339 17.175,6 16.757,6 C16.339,6 16,6.339 16,6.757 C16,7.175 16.339,7.514 16.757,7.514" id="Fill-4" sketch:type="MSShapeGroup"></path>
                <path d="M18.758,8.514 C19.176,8.514 19.515,8.175 19.515,7.757 C19.515,7.339 19.176,7 18.758,7 C18.34,7 18,7.339 18,7.757 C18,8.175 18.34,8.514 18.758,8.514" id="Fill-5" sketch:type="MSShapeGroup"></path>
            </g>
        </g>
    </g>
</svg>